<svg id="Icon_awesome-search" data-name="Icon awesome-search" xmlns="http://www.w3.org/2000/svg" width="32" height="32" viewBox="0 0 32 32">
  <rect id="長方形_1202" data-name="長方形 1202" width="32" height="32" fill="none"/>
  <g id="グループ_1634" data-name="グループ 1634" transform="translate(1 1)">
    <path id="パス_778" data-name="パス 778" d="M28.329,11.125H.668a.726.726,0,0,0-.244.044l-.041.015a.713.713,0,0,0-.244.166c-.008.013-.023.023-.031.036l0,0a.563.563,0,0,0-.081.168c0,.013,0,.026-.01.039A.533.533,0,0,0,0,11.743a.07.07,0,0,1,0,.026.112.112,0,0,0,.008.036.306.306,0,0,1,.013.046.483.483,0,0,0,.041.09.234.234,0,0,1,.013.036l2.076,3.183a4.085,4.085,0,0,0,.395.506c.05.054.094.1.144.153.031.031.064.059.1.085.063.059.127.122.195.176s.159.122.236.181.122.09.185.13a3.888,3.888,0,0,0,.439.258c.05.026.1.044.154.067.083.041.168.081.254.117a2.735,2.735,0,0,0,1.913-1.682,1.363,1.363,0,0,1,1.222-.807h.023a1.36,1.36,0,0,1,1.224.766,2.705,2.705,0,0,0,2.306,1.655,2.747,2.747,0,0,0,2.3-1.94,1.362,1.362,0,0,1,2.514,0,2.746,2.746,0,0,0,2.321,1.94,2.7,2.7,0,0,0,2.288-1.655,1.358,1.358,0,0,1,1.224-.766h.021a1.355,1.355,0,0,1,1.219.807,2.751,2.751,0,0,0,1.918,1.682A4.673,4.673,0,0,0,26.3,15.82a4.165,4.165,0,0,0,.539-.659l2.072-3.183c.249-.385-.073-.853-.585-.853" transform="translate(0 7.169)" fill="#50a594"/>
    <g id="グループ_1636" data-name="グループ 1636" transform="translate(3.774 -0.026)">
      <path id="パス_779" data-name="パス 779" d="M8.109,8.229A2.555,2.555,0,1,0,5.084,5.244,2.542,2.542,0,0,0,8.109,8.229" transform="translate(-2.643 0.731)" fill="#50a594"/>
      <path id="パス_782" data-name="パス 782" d="M3.757,17.964l0,.011H9.2l1.035-4.424,2.449.341,1.143.164-1.919,2.633a.5.5,0,0,0,.806.591l2.239-3.073.638.089a1.075,1.075,0,0,0,.728-1.966l2.952-4.053,2.02-.973,2.924-4.012a.812.812,0,0,0-.175-1.131l-1.266-.928a.807.807,0,0,0-1.128.175L18.707,5.445l-.24,2.242-3.2,4.389-8.4-1.249a1.228,1.228,0,0,0-1.174.863c-.475,1.5-1.511,5.158-1.872,6.116-.026.065-.05.121-.069.158Z" transform="translate(-3.753 -1.078)" fill="#50a594"/>
    </g>
    <path id="パス_783" data-name="パス 783" d="M28.418,15.413V15.4a4.271,4.271,0,0,1-3.3,1.182c-.059,0-.117,0-.182,0a3.682,3.682,0,0,1-2.446-1.014,4.5,4.5,0,0,1-.927-1.236c-.045-.092-.091-.181-.131-.275l0,0,0-.01a4.585,4.585,0,0,1-1.16,1.516,3.61,3.61,0,0,1-2.352.906h-.026a3.419,3.419,0,0,1-2.243-.906,4.877,4.877,0,0,1-1.12-1.476c-.064-.128-.127-.256-.182-.391l0,.007,0-.012a4.989,4.989,0,0,1-1.305,1.872,3.422,3.422,0,0,1-2.243.906h-.028a3.6,3.6,0,0,1-2.351-.906,4.493,4.493,0,0,1-1-1.226c-.051-.094-.1-.187-.149-.284l0,0-.007-.01a4.491,4.491,0,0,1-1.069,1.516,3.674,3.674,0,0,1-2.443,1.014c-.063,0-.122,0-.18,0A4.73,4.73,0,0,1,.587,15.72,2.382,2.382,0,0,1,.263,15.4v.01l-.01-.01v1.56A5.8,5.8,0,0,0,3.734,19.44a3.168,3.168,0,0,0,.509.041A3.217,3.217,0,0,0,7,17.875a4.492,4.492,0,0,0,.248-.449,4.384,4.384,0,0,0,3.537,2.722c.05,0,.1,0,.149,0a3.62,3.62,0,0,0,3.036-1.964,5.615,5.615,0,0,0,.367-.709,3.882,3.882,0,0,0,3.4,2.673c.05,0,.1,0,.15,0A4.15,4.15,0,0,0,21.049,18.1c.028-.043.059-.084.088-.128l.048-.089c.086-.146.17-.3.244-.452a3.3,3.3,0,0,0,3,2.055,3.193,3.193,0,0,0,.512-.041,5.811,5.811,0,0,0,3.481-2.481v-.878l.007-.676-.007.007" transform="translate(0.165 8.82)" fill="#50a594"/>
  </g>
</svg>
