<svg id="コンポーネント_3_7" data-name="コンポーネント 3 – 7" xmlns="http://www.w3.org/2000/svg" width="32" height="37" viewBox="0 0 32 37">
  <g id="グループ_1617" data-name="グループ 1617">
    <path id="パス_772" data-name="パス 772" d="M61.971,118.155l2.963,1.737a1.659,1.659,0,0,0,1.681,0l14.319-8.4a1.712,1.712,0,0,0,.84-1.478v-6.13H76.019Z" transform="translate(-49.774 -83.121)" fill="#fff"/>
    <path id="パス_773" data-name="パス 773" d="M2.93,37.018.84,38.244A1.712,1.712,0,0,0,0,39.722v8.956H14.411Z" transform="translate(0 -29.618)" fill="#fff"/>
    <path id="パス_774" data-name="パス 774" d="M84.285,25.834l-7.378-4.326L66.144,32.44l3.5,3.552.248.253a.078.078,0,0,0,.056.023H85.126V27.312a1.712,1.712,0,0,0-.84-1.478" transform="translate(-53.126 -17.209)" fill="#fff"/>
    <path id="パス_775" data-name="パス 775" d="M40.383,3.415,34.948.228a1.657,1.657,0,0,0-1.68,0L22.545,6.516l7.393,7.508Z" transform="translate(-18.108 0)" fill="#fff"/>
    <path id="パス_776" data-name="パス 776" d="M0,103.888v6.13A1.713,1.713,0,0,0,.84,111.5l9.85,5.776,13.178-13.384Z" transform="translate(0 -83.121)" fill="#fff"/>
  </g>
</svg>
