<svg xmlns="http://www.w3.org/2000/svg" width="10" height="11" viewBox="0 0 10 11">
  <g transform="translate(0 0)">
    <path  d="M61.971,108.13l.926.516a.541.541,0,0,0,.525,0l4.475-2.5a.5.5,0,0,0,.263-.439v-1.822h-1.8Z" transform="translate(-58.159 -97.714)" fill="#50a594"/>
    <path  d="M.916,37.018l-.653.364A.5.5,0,0,0,0,37.822v2.663H4.5Z" transform="translate(0 -34.818)" fill="#50a594"/>
    <path  d="M71.813,22.794l-2.305-1.286-3.364,3.25,1.093,1.056.078.075a.025.025,0,0,0,.017.007h4.744V23.234a.5.5,0,0,0-.263-.439" transform="translate(-62.076 -20.23)" fill="#50a594"/>
    <path  d="M28.119,1.015l-1.7-.947a.541.541,0,0,0-.525,0L22.545,1.937l2.31,2.232Z" transform="translate(-21.158 0)" fill="#50a594"/>
    <path  d="M0,103.888v1.822a.5.5,0,0,0,.263.439l3.078,1.717,4.118-3.979Z" transform="translate(0 -97.714)" fill="#50a594"/>
  </g>
</svg>
