<svg xmlns="http://www.w3.org/2000/svg" width="32" height="32" viewBox="0 0 32 32">
  <g id="グループ_31" data-name="グループ 31" transform="translate(-4.079 -4.079)">
    <path id="パス_3" data-name="パス 3" d="M20.079,6.962c4.272,0,4.778.016,6.465.093a8.856,8.856,0,0,1,2.971.551,5.3,5.3,0,0,1,3.037,3.037,8.856,8.856,0,0,1,.551,2.971c.077,1.687.093,2.193.093,6.465s-.016,4.778-.093,6.465a8.856,8.856,0,0,1-.551,2.971,5.3,5.3,0,0,1-3.037,3.037,8.856,8.856,0,0,1-2.971.551c-1.687.077-2.193.093-6.465.093S15.3,33.18,13.614,33.1a8.856,8.856,0,0,1-2.971-.551,5.3,5.3,0,0,1-3.037-3.037,8.856,8.856,0,0,1-.551-2.971c-.077-1.687-.093-2.193-.093-6.465s.016-4.778.093-6.465a8.856,8.856,0,0,1,.551-2.971,5.3,5.3,0,0,1,3.037-3.037,8.856,8.856,0,0,1,2.971-.551c1.687-.077,2.193-.093,6.465-.093m0-2.883c-4.345,0-4.89.018-6.6.1A11.744,11.744,0,0,0,9.6,4.919,8.182,8.182,0,0,0,4.919,9.6a11.744,11.744,0,0,0-.744,3.884c-.078,1.707-.1,2.251-.1,6.6s.018,4.89.1,6.6a11.744,11.744,0,0,0,.744,3.884A8.182,8.182,0,0,0,9.6,35.239a11.744,11.744,0,0,0,3.884.744c1.707.078,2.251.1,6.6.1s4.89-.018,6.6-.1a11.744,11.744,0,0,0,3.884-.744,8.182,8.182,0,0,0,4.679-4.679,11.744,11.744,0,0,0,.744-3.884c.078-1.707.1-2.251.1-6.6s-.018-4.89-.1-6.6A11.744,11.744,0,0,0,35.239,9.6,8.182,8.182,0,0,0,30.56,4.919a11.744,11.744,0,0,0-3.884-.744c-1.707-.078-2.251-.1-6.6-.1Z" fill="#6a6a6a"/>
    <path id="パス_4" data-name="パス 4" d="M134.851,126.635a8.216,8.216,0,1,0,8.216,8.216A8.216,8.216,0,0,0,134.851,126.635Zm0,13.55a5.333,5.333,0,1,1,5.333-5.333A5.333,5.333,0,0,1,134.851,140.185Z" transform="translate(-114.772 -114.772)" fill="#6a6a6a"/>
    <circle id="楕円形_8" data-name="楕円形 8" cx="1.92" cy="1.92" r="1.92" transform="translate(26.7 9.618)" fill="#6a6a6a"/>
  </g>
</svg>
