<svg id="コンポーネント_3_2" data-name="コンポーネント 3 – 2" xmlns="http://www.w3.org/2000/svg" width="10" height="12" viewBox="0 0 10 12">
  <path id="パス_12606" data-name="パス 12606" d="M64.392,50.01h-.347a3.345,3.345,0,0,0-1.564-2.818,2.98,2.98,0,0,0-3.089-.023l-.174-.318a3.408,3.408,0,0,0,0-5.682l.174-.318a2.915,2.915,0,0,0,3.089-.024,3.269,3.269,0,0,0,1.564-2.817h.347a3.269,3.269,0,0,0,1.564,2.817,2.915,2.915,0,0,0,3.089.024l.174.318a3.408,3.408,0,0,0,0,5.682l-.174.318a2.98,2.98,0,0,0-3.089.023A3.345,3.345,0,0,0,64.392,50.01Z" transform="translate(-59.218 -38.01)" fill="#b9a35a"/>
</svg>
