<svg id="グループ_1653" data-name="グループ 1653" xmlns="http://www.w3.org/2000/svg" xmlns:xlink="http://www.w3.org/1999/xlink" width="163.061" height="235.71" viewBox="0 0 163.061 235.71">
  <defs>
    <clipPath id="clip-path">
      <rect id="長方形_1211" data-name="長方形 1211" width="163.061" height="235.71" fill="none"/>
    </clipPath>
  </defs>
  <g id="グループ_1652" data-name="グループ 1652" clip-path="url(#clip-path)">
    <g id="グループ_1651" data-name="グループ 1651">
      <g id="グループ_1650" data-name="グループ 1650" clip-path="url(#clip-path)">
        <g id="グループ_1649" data-name="グループ 1649" opacity="0.8">
          <g id="グループ_1648" data-name="グループ 1648">
            <g id="グループ_1647" data-name="グループ 1647" clip-path="url(#clip-path)">
              <path id="パス_805" data-name="パス 805" d="M85.583,95.491a.4.4,0,0,1-.283-.117l-1.262-1.268a4.245,4.245,0,0,1,.925,1.385Z" fill="#fff"/>
              <path id="パス_806" data-name="パス 806" d="M62.063,175.523l15.075,8.7a8.555,8.555,0,0,0,8.552,0l72.862-42.067a8.552,8.552,0,0,0,4.276-7.406V104.042H133.544Z" fill="#fff"/>
              <path id="パス_807" data-name="パス 807" d="M14.911,37.073,4.276,43.213A8.552,8.552,0,0,0,0,50.619V95.491H73.329Z" fill="#fff"/>
              <path id="パス_808" data-name="パス 808" d="M158.552,43.213l-37.54-21.674L66.242,76.31l17.8,17.8L85.3,95.373a.4.4,0,0,0,.283.118h77.245V50.619a8.552,8.552,0,0,0-4.276-7.406" fill="#fff"/>
              <path id="パス_809" data-name="パス 809" d="M113.345,17.113,85.689,1.146a8.549,8.549,0,0,0-8.551,0l-54.56,31.5L60.195,70.263Z" fill="#fff"/>
              <path id="パス_810" data-name="パス 810" d="M0,104.042v30.711a8.552,8.552,0,0,0,4.276,7.406L54.4,171.1l67.054-67.054Z" fill="#fff"/>
              <path id="パス_811" data-name="パス 811" d="M20.787,212.11h5.16V234.2h-5.16ZM0,212.11H5.127V234.2H0Z" fill="#fff"/>
              <path id="パス_812" data-name="パス 812" d="M49.444,234.2l-1.228-4.052-4.1-12.082H41.453l-3.677,12.082-1.2,4.052H31.528l8.3-22.087H46.4L54.7,234.2Z" fill="#fff"/>
              <path id="パス_813" data-name="パス 813" d="M75.938,234.2l-5.621-10.964-5.452,5.711V234.2H59.738V212.11h5.127v11.37L74.6,212.11h6.624l-7.6,7.866,8.71,14.221Z" fill="#fff"/>
              <path id="パス_814" data-name="パス 814" d="M98.2,234.616a32.322,32.322,0,0,1-3.765-.243,9.084,9.084,0,0,1-3.116-.863,7.69,7.69,0,0,1-2.241-1.83,6.584,6.584,0,0,1-1.37-2.378,13.505,13.505,0,0,1-.652-3.8v-13.4h5.11v13.743a5.468,5.468,0,0,0,1.468,4,6.007,6.007,0,0,0,7.9.024,5.457,5.457,0,0,0,1.474-4.023V212.11h5.11v13.4a11.15,11.15,0,0,1-.609,3.7,7.7,7.7,0,0,1-1.835,2.917,7.323,7.323,0,0,1-2.6,1.749,14.165,14.165,0,0,1-4.883.744" fill="#fff"/>
              <path id="パス_815" data-name="パス 815" d="M123.636,215.618c-5.219,0-9.465,3.955-9.465,8.817,0,3.411,1.9,6.083,4.322,6.083,2.908,0,4.58-4.2,5.318-6.7A40.285,40.285,0,0,0,125,218.548l.016-.1.1.023c2.336.549,3.676,2.412,3.676,5.112a5.233,5.233,0,0,1-4.364,5.194c-.451.109-.908.214-1.533.3l-.314.046,1.749,2.738.136-.025c4.837-.883,7.5-3.78,7.5-8.156,0-4.75-3.426-8.068-8.332-8.068m-5.062,11.259c-.65,0-1.409-.724-1.409-2.766a6.083,6.083,0,0,1,4.564-5.557l.138-.038-.022.142a29.927,29.927,0,0,1-1.036,4.569c-.68,2.191-1.32,3.65-2.235,3.65" fill="#fff"/>
              <path id="パス_816" data-name="パス 816" d="M154.36,235.71v-6.3l-.76,1.261a13.013,13.013,0,0,1-3.465,3.9,16.573,16.573,0,0,0-1.9-2.274,12.8,12.8,0,0,0,4.17-4.377l.375-.621h-2.656v-2.662h4.234V221.85h3v2.786h5.264V227.3H158.7l.461.648a16.876,16.876,0,0,0,3.9,3.931,18.258,18.258,0,0,0-2.241,2.577,17.535,17.535,0,0,1-2.7-3.715l-.767-1.372v6.343Zm-12.005,0V230.1l-.754,1.176a11.431,11.431,0,0,1-2.854,3.14,22.811,22.811,0,0,0-1.384-3.023,12.709,12.709,0,0,0,3.472-3.452l.44-.642h-3.46v-2.662h4.54v-2.931l.036.145h2.933v2.786h3.343V227.3h-3.343v.9l.209.117c.9.51,2.313,1.416,3.058,1.909l-1.761,2.223c-.131-.141-.272-.289-.417-.441-.124-.129-.252-.263-.38-.4l-.709-.756v4.86Zm-2.13-13.721a16.964,16.964,0,0,0-1.891-2.426,19.693,19.693,0,0,0,6.1-3.35l.872-.725h-5.933V212.77h9.052v-2.758h3.248v2.758h9.582v2.718h-6.6l1.033.742a21.457,21.457,0,0,0,6.47,3.107,18.686,18.686,0,0,0-1.977,2.6,20.884,20.884,0,0,1-7.8-5.264l-.709-.762v6.063h-3.248V215.99l-.715.8a19.724,19.724,0,0,1-5.5,4.278l-.449.224c-.472.237-.988.469-1.537.692" fill="#fff"/>
              <path id="パス_817" data-name="パス 817" d="M9.835,226.049l-1.477-.566V221.2l1.477-.566h7.074a.837.837,0,0,1,.48.153l.04.027,3.491,1.411H32.992l-.772,2.231H20.778l-3.343,1.4-.042.031a.84.84,0,0,1-.5.165Z" fill="#fff"/>
              <path id="パス_818" data-name="パス 818" d="M35.274,224.458l.79-2.232H55.788v2.232Z" fill="#fff"/>
            </g>
          </g>
        </g>
      </g>
    </g>
  </g>
</svg>
