<svg xmlns="http://www.w3.org/2000/svg" width="162.587" height="185.097" viewBox="0 0 162.587 185.097">
  <g id="コンポーネント_54_5" data-name="コンポーネント 54 – 5" opacity="0.7">
    <g id="グループ_1622" data-name="グループ 1622" transform="translate(0 0)">
      <path id="パス_767" data-name="パス 767" d="M61.971,175.262l15.053,8.691a8.541,8.541,0,0,0,8.539,0l72.754-42.005a8.539,8.539,0,0,0,4.27-7.4V103.888H133.345Z" fill="#fff"/>
      <path id="パス_768" data-name="パス 768" d="M14.889,37.018,4.269,43.149A8.541,8.541,0,0,0,0,50.544V95.349H73.22Z" fill="#fff"/>
      <path id="パス_769" data-name="パス 769" d="M158.317,43.149,120.833,21.508,66.144,76.2,83.913,93.966l1.261,1.266a.4.4,0,0,0,.282.117h77.13V50.544a8.538,8.538,0,0,0-4.269-7.4" fill="#fff"/>
      <path id="パス_770" data-name="パス 770" d="M113.177,17.087,85.562,1.144a8.534,8.534,0,0,0-8.538,0L22.545,32.6,60.106,70.158Z" fill="#fff"/>
      <path id="パス_771" data-name="パス 771" d="M0,103.888v30.666a8.542,8.542,0,0,0,4.269,7.4l50.046,28.893,66.954-66.954Z" fill="#fff"/>
    </g>
  </g>
</svg>
