<svg xmlns="http://www.w3.org/2000/svg" width="35.986" height="40" viewBox="0 0 35.986 40">
  <g id="グループ_1619" data-name="グループ 1619" transform="translate(0 0)">
    <path id="パス_761" data-name="パス 761" d="M23.394,54.642l3.332,1.878a1.929,1.929,0,0,0,1.89,0l16.1-9.078a1.837,1.837,0,0,0,.945-1.6V39.218H39.191Z" transform="translate(-9.678 -16.768)" fill="#e2e2e2"/>
    <path id="パス_762" data-name="パス 762" d="M3.3,13.974.945,15.3A1.838,1.838,0,0,0,0,16.9V26.58H16.206Z" transform="translate(0 -5.975)" fill="#e2e2e2"/>
    <path id="パス_763" data-name="パス 763" d="M45.371,12.8l-8.3-4.677L24.97,19.938l3.933,3.84.279.274a.091.091,0,0,0,.063.025H46.316V14.394a1.839,1.839,0,0,0-.945-1.6" transform="translate(-10.33 -3.471)" fill="#e2e2e2"/>
    <path id="パス_764" data-name="パス 764" d="M28.571,3.693,22.459.248a1.931,1.931,0,0,0-1.89,0L8.511,7.045l8.313,8.117Z" transform="translate(-3.521 -0.001)" fill="#e2e2e2"/>
    <path id="パス_765" data-name="パス 765" d="M0,39.218v6.627a1.837,1.837,0,0,0,.945,1.6l11.076,6.244L26.841,39.218Z" transform="translate(0 -16.768)" fill="#e2e2e2"/>
  </g>
</svg>
