<svg xmlns="http://www.w3.org/2000/svg" width="48" height="55.5" viewBox="0 0 48 55.5">
  <g id="グループ_9097" data-name="グループ 9097" transform="translate(-49.1 -25.759)">
    <circle id="楕円形_31" data-name="楕円形 31" cx="1.816" cy="1.816" r="1.816" transform="translate(71.292 25.759)" fill="#1a1311"/>
    <circle id="楕円形_32" data-name="楕円形 32" cx="1.702" cy="1.702" r="1.702" transform="translate(71.405 77.855)" fill="#1a1311"/>
    <circle id="楕円形_33" data-name="楕円形 33" cx="1.816" cy="1.816" r="1.816" transform="translate(49.1 38.726)" fill="#1a1311"/>
    <circle id="楕円形_34" data-name="楕円形 34" cx="1.702" cy="1.702" r="1.702" transform="translate(93.696 64.831)" fill="#1a1311"/>
    <circle id="楕円形_35" data-name="楕円形 35" cx="1.816" cy="1.816" r="1.816" transform="translate(49.1 64.66)" fill="#1a1311"/>
    <circle id="楕円形_36" data-name="楕円形 36" cx="1.702" cy="1.702" r="1.702" transform="translate(93.696 38.783)" fill="#1a1311"/>
    <path id="パス_12606" data-name="パス 12606" d="M79.56,83.206H78.194a12.488,12.488,0,0,0-6.148-10.613A12.159,12.159,0,0,0,59.9,72.506l-.683-1.2a12.545,12.545,0,0,0,0-21.4l.683-1.2a11.887,11.887,0,0,0,12.144-.089A12.208,12.208,0,0,0,78.194,38.01H79.56a12.208,12.208,0,0,0,6.148,10.611,11.887,11.887,0,0,0,12.144.089l.683,1.2a12.545,12.545,0,0,0,0,21.4l-.683,1.2a12.159,12.159,0,0,0-12.144.088A12.488,12.488,0,0,0,79.56,83.206ZM65.853,69.5a13.908,13.908,0,0,1,13.024,9.426,13.816,13.816,0,0,1,15.654-9.157,14.163,14.163,0,0,1,0-18.314,13.818,13.818,0,0,1-15.654-9.157,13.818,13.818,0,0,1-15.654,9.157,14.163,14.163,0,0,1,0,18.314A12.979,12.979,0,0,1,65.853,69.5Z" transform="translate(-5.769 -6.986)" fill="#1a1311"/>
    <g id="グループ_9094" data-name="グループ 9094" transform="translate(67.925 44.005)">
      <path id="パス_12607" data-name="パス 12607" d="M94.662,69.877q0-.453.5-.454h2.117q.5,0,.5.454v1.5a.5.5,0,0,0,.076.261.6.6,0,0,0,.177.193l3.529,2.541a.228.228,0,0,0,.151.068c.1,0,.152-.06.152-.182v-4.38q0-.453.5-.454h2.117q.5,0,.5.454V84.851q0,.454-.5.454h-2.117q-.5,0-.5-.454V78.408a.541.541,0,0,0-.2-.408l-3.58-2.609a.228.228,0,0,0-.151-.068q-.152,0-.151.182v9.347q0,.454-.5.454H95.166q-.5,0-.5-.454Z" transform="translate(-94.662 -69.423)" fill="#1a1311"/>
    </g>
    <path id="パス_12608" data-name="パス 12608" d="M93.214,33.444l2.953,3.645L91.9,35.143Z" transform="translate(-25.021 -4.382)" fill="#1a1311"/>
    <path id="パス_12609" data-name="パス 12609" d="M116.1,35.144l-4.268,1.947,2.953-3.645Z" transform="translate(-36.672 -4.383)" fill="#1a1311"/>
    <g id="グループ_9096" data-name="グループ 9096" transform="translate(67.891 60.81)">
      <g id="グループ_9095" data-name="グループ 9095" transform="translate(0 0)">
        <path id="パス_12610" data-name="パス 12610" d="M94.585,109.685a.628.628,0,0,1,.634-.635.655.655,0,0,1,.326.082.6.6,0,0,1,.229.227.643.643,0,0,1,.084.326v.067a.059.059,0,0,1-.067.066h-.279a.059.059,0,0,1-.067-.066l0-.1a.239.239,0,0,0-.066-.166.222.222,0,0,0-.315,0,.226.226,0,0,0-.064.166v1.167a.273.273,0,0,0,.064.191.2.2,0,0,0,.159.07.208.208,0,0,0,.159-.07.275.275,0,0,0,.063-.191v-.285a.029.029,0,0,0-.033-.033h-.164a.059.059,0,0,1-.067-.066V110.2a.059.059,0,0,1,.067-.067h.545a.059.059,0,0,1,.067.067v.626a.643.643,0,0,1-.084.326.608.608,0,0,1-.229.229.642.642,0,0,1-.326.084.629.629,0,0,1-.637-.639Z" transform="translate(-94.582 -109.05)" fill="#1a1311"/>
        <path id="パス_12611" data-name="パス 12611" d="M98.619,110.154q0-.033-.023-.033c-.014,0-.022.011-.023.033l-.244,1.255a.066.066,0,0,1-.074.06h-.288q-.074,0-.057-.074l.475-1.933a.294.294,0,0,0,.007-.061v-.2a.059.059,0,0,1,.066-.066h.282a.059.059,0,0,1,.066.066v.2a.294.294,0,0,0,.007.061l.471,1.933a.053.053,0,0,1,0,.023c0,.033-.02.05-.06.05h-.285a.066.066,0,0,1-.074-.06Z" transform="translate(-96.478 -109.097)" fill="#1a1311"/>
        <path id="パス_12612" data-name="パス 12612" d="M113.162,110.154c0-.022-.01-.033-.023-.033s-.021.011-.023.033l-.244,1.255a.066.066,0,0,1-.074.06h-.287q-.074,0-.057-.074l.475-1.933a.325.325,0,0,0,.006-.061v-.2a.059.059,0,0,1,.067-.066h.281a.059.059,0,0,1,.066.066v.2a.3.3,0,0,0,.007.061l.472,1.933a.062.062,0,0,1,0,.024c0,.033-.02.05-.06.05h-.285a.066.066,0,0,1-.074-.06Z" transform="translate(-104.77 -109.097)" fill="#1a1311"/>
        <path id="パス_12613" data-name="パス 12613" d="M101.206,109.438V109.2a.059.059,0,0,1,.066-.066h1.1a.059.059,0,0,1,.067.066v.241a.059.059,0,0,1-.067.067h-.311a.029.029,0,0,0-.033.033v1.867a.059.059,0,0,1-.067.066h-.282a.059.059,0,0,1-.067-.066V109.54a.029.029,0,0,0-.033-.033h-.308a.059.059,0,0,1-.066-.069Z" transform="translate(-98.359 -109.097)" fill="#1a1311"/>
        <path id="パス_12614" data-name="パス 12614" d="M105.72,111.164v.241a.059.059,0,0,1-.066.066h-1.011a.059.059,0,0,1-.066-.066V109.2a.059.059,0,0,1,.066-.066h1.011a.059.059,0,0,1,.066.066v.241a.059.059,0,0,1-.066.067h-.63a.029.029,0,0,0-.033.033v1.526a.029.029,0,0,0,.033.033h.629a.059.059,0,0,1,.068.065Z" transform="translate(-100.281 -109.097)" fill="#1a1311"/>
        <path id="パス_12615" data-name="パス 12615" d="M107.726,109.18c0-.036.02-.053.061-.053h.291a.064.064,0,0,1,.07.06l.2,1.505q0,.017.018.017a.018.018,0,0,0,.018-.017l.2-1.5a.067.067,0,0,1,.074-.064h.178a.07.07,0,0,1,.049.017.072.072,0,0,1,.021.047l.2,1.5q0,.017.018.017a.018.018,0,0,0,.018-.017l.188-1.505a.065.065,0,0,1,.07-.06h.287q.067,0,.057.074l-.351,2.208a.066.066,0,0,1-.074.06h-.341a.066.066,0,0,1-.074-.06l-.147-1c0-.013-.009-.02-.02-.02s-.016.006-.02.02l-.147,1a.066.066,0,0,1-.074.06h-.341a.066.066,0,0,1-.074-.06l-.355-2.208a.047.047,0,0,1,0-.02Z" transform="translate(-102.077 -109.093)" fill="#1a1311"/>
        <path id="パス_12616" data-name="パス 12616" d="M115.6,109.127h.291a.065.065,0,0,1,.045.013.1.1,0,0,1,.025.047l.258.88c0,.016.009.023.02.023s.018-.008.02-.023l.251-.88a.07.07,0,0,1,.07-.06h.287a.061.061,0,0,1,.052.02.058.058,0,0,1,0,.054l-.482,1.406v.8a.059.059,0,0,1-.066.066h-.281a.059.059,0,0,1-.067-.066v-.8q-.489-1.4-.488-1.426C115.536,109.145,115.556,109.127,115.6,109.127Z" transform="translate(-106.531 -109.094)" fill="#1a1311"/>
      </g>
      <circle id="楕円形_37" data-name="楕円形 37" cx="0.267" cy="0.267" r="0.267" transform="translate(4.813 0.938)" fill="#1a1311"/>
    </g>
  </g>
</svg>
