<svg id="コンポーネント_19_1" data-name="コンポーネント 19 – 1" xmlns="http://www.w3.org/2000/svg" width="120" height="22" viewBox="0 0 120 22">
  <g id="logo" transform="translate(0 0)">
    <g id="グループ_1620" data-name="グループ 1620" transform="translate(0 0)">
      <g id="グループ_1621" data-name="グループ 1621">
        <path id="パス_755" data-name="パス 755" d="M95.459,27.2a.323.323,0,0,1-.327-.319V21.13a.5.5,0,0,0-.5-.491H89.254a.5.5,0,0,0-.5.491v5.75a.323.323,0,0,1-.327.319H87.083a.323.323,0,0,1-.327-.319V13.643a.323.323,0,0,1,.327-.319h1.341a.323.323,0,0,1,.327.319v4.685a.5.5,0,0,0,.5.491H94.63a.5.5,0,0,0,.5-.491V13.643a.323.323,0,0,1,.327-.319H96.8a.323.323,0,0,1,.327.319V26.88a.323.323,0,0,1-.327.319Z" transform="translate(-58.781 -9.129)"/>
        <path id="パス_756" data-name="パス 756" d="M139.7,26.517a.327.327,0,0,1-.3-.193L138.105,23.4a.5.5,0,0,0-.461-.3h-5.62a.5.5,0,0,0-.457.286l-1.381,2.939a.328.328,0,0,1-.3.186h-1.422a.328.328,0,0,1-.275-.148.31.31,0,0,1-.021-.306l6.461-13.551a.33.33,0,0,1,.594,0l6.233,13.551a.311.311,0,0,1-.024.3.328.328,0,0,1-.274.146Zm-4.81-9.592a.5.5,0,0,0-.457.287L132.85,20.59a.48.48,0,0,0,.034.469.5.5,0,0,0,.423.225H136.4a.5.5,0,0,0,.421-.222.479.479,0,0,0,.04-.465l-1.509-3.378a.5.5,0,0,0-.461-.295" transform="translate(-86.82 -8.447)"/>
        <path id="パス_757" data-name="パス 757" d="M186.635,27.2a.328.328,0,0,1-.254-.118l-4.766-5.75a.511.511,0,0,0-.746-.038.483.483,0,0,0-.147.347V26.88a.323.323,0,0,1-.327.319h-1.341a.323.323,0,0,1-.327-.319V13.643a.323.323,0,0,1,.327-.319h1.341a.323.323,0,0,1,.327.319v4.2a.494.494,0,0,0,.506.492.5.5,0,0,0,.357-.149l4.766-4.77a.334.334,0,0,1,.234-.1h1.723a.322.322,0,0,1,.3.2.309.309,0,0,1-.07.347l-5.53,5.407a.481.481,0,0,0-.031.661l5.735,6.74a.306.306,0,0,1,.044.339.32.32,0,0,1-.3.184Z" transform="translate(-121.094 -9.129)"/>
        <path id="パス_758" data-name="パス 758" d="M225.537,27.11a5.212,5.212,0,0,1-3.841-1.575,4.934,4.934,0,0,1-1.391-3.6V13.643a.323.323,0,0,1,.327-.319h1.341a.324.324,0,0,1,.327.319v7.712a4.665,4.665,0,0,0,.621,2.7,3.378,3.378,0,0,0,5.24,0,4.589,4.589,0,0,0,.623-2.7V13.643a.323.323,0,0,1,.327-.319h1.341a.324.324,0,0,1,.327.319v8.294a4.933,4.933,0,0,1-1.392,3.6,5.241,5.241,0,0,1-3.849,1.575" transform="translate(-149.265 -9.129)"/>
        <path id="パス_759" data-name="パス 759" d="M275.351,27.057a1.015,1.015,0,0,1-1.113-.809c-.042-.36.188-.843.975-1.022a7.006,7.006,0,0,0,4.188-2.473,4.717,4.717,0,0,0-1.26-6.789,5.846,5.846,0,0,0-2.179-.812.481.481,0,0,0-.462.183.426.426,0,0,0-.068.392,1.064,1.064,0,0,1,.029.485,16.68,16.68,0,0,1-4.375,8.571,2.561,2.561,0,0,1-1.715.743,3.022,3.022,0,0,1-2.5-1.852c-1.311-2.519.076-6.449,2.97-8.409a9.485,9.485,0,0,1,5.189-1.525,8.06,8.06,0,0,1,4.094,1.039,5.932,5.932,0,0,1,2.863,3.7,6.6,6.6,0,0,1-.884,5.06,9.012,9.012,0,0,1-5.245,3.456,2.033,2.033,0,0,1-.5.067m-2.21-11.745a.466.466,0,0,0-.135.02,7.58,7.58,0,0,0-2.347,1.176c-2.157,1.631-3.214,4.554-2.263,6.257a1.273,1.273,0,0,0,1.059.786,1,1,0,0,0,.659-.268,12.855,12.855,0,0,0,3.458-7.243,1.775,1.775,0,0,1,.025-.189.445.445,0,0,0-.1-.373.468.468,0,0,0-.357-.165" transform="translate(-180.476 -9.414)"/>
        <path id="パス_760" data-name="パス 760" d="M332.183,26.558a.624.624,0,0,1-.679.6.632.632,0,0,1-.7-.616v-.016l.037-2.32a.215.215,0,0,0-.387-.128,5.2,5.2,0,0,1-2.482,2.1.706.706,0,0,1-.7-.7.655.655,0,0,1,.34-.584,8.579,8.579,0,0,0,2.607-2.473.211.211,0,0,0-.184-.328l-1.468.037h-.016a.632.632,0,0,1,0-1.263l2.058.014a.213.213,0,0,0,.216-.216l-.026-.856V19.8a.692.692,0,0,1,1.375,0v.016l-.026.856a.212.212,0,0,0,.217.216l1.345-.013h.016a.612.612,0,0,1,.6.647.573.573,0,0,1-.582.616h-.033l-1.38-.041a.213.213,0,0,0-.222.21.216.216,0,0,0,.271.2.344.344,0,0,1,.069-.008c.032,0,1.7.49,1.7,1.2a.662.662,0,0,1-.6.663.524.524,0,0,1-.372-.158,4.814,4.814,0,0,0-1-.742.06.06,0,0,1-.049-.016l.049,3.1Zm7.637-10.568-3.188-.052a.21.21,0,0,0-.121.386,18.193,18.193,0,0,0,3.794,1.767.637.637,0,0,1,.485.6.892.892,0,0,1-.89.821,12.737,12.737,0,0,1-4.306-2.373.215.215,0,0,0-.348.167l.027,2.112v.016c0,.379-.356.569-.728.569-.356,0-.712-.19-.712-.569v-.016l.027-2.058a.215.215,0,0,0-.349-.166,13.951,13.951,0,0,1-4.4,2.4.743.743,0,0,1-.76-.695.677.677,0,0,1,.5-.6,14.556,14.556,0,0,0,3.775-1.981.209.209,0,0,0-.132-.378l-3.141.053h-.016a.611.611,0,0,1-.647-.632.628.628,0,0,1,.663-.648h4.279a.212.212,0,0,0,.215-.214l-.012-.655v-.016a.726.726,0,0,1,1.44,0v.016l-.024.651a.212.212,0,0,0,.215.218h4.356a.64.64,0,1,1,.016,1.28Zm-1.667,10.568a.624.624,0,0,1-.68.6.632.632,0,0,1-.7-.616v-.016l.038-2.4a.216.216,0,0,0-.386-.13c-.606.785-1.655,1.981-2.192,1.981a.748.748,0,0,1-.712-.726.544.544,0,0,1,.243-.442,9.014,9.014,0,0,0,2.374-2.377.211.211,0,0,0-.19-.325l-.81.031h-.016a.577.577,0,0,1-.6-.616.612.612,0,0,1,.6-.647h.016l1.443.014a.212.212,0,0,0,.217-.216l-.026-.856V19.8a.692.692,0,0,1,1.375,0v.016l-.013.86a.212.212,0,0,0,.216.213l2.288-.014a.615.615,0,0,1,.615.647.577.577,0,0,1-.6.616h-.016l-1.622-.037a.21.21,0,0,0-.166.351A11.363,11.363,0,0,0,341.4,24.52a.628.628,0,0,1,.34.553.852.852,0,0,1-.809.821c-.556,0-1.766-1.284-2.442-2.081a.215.215,0,0,0-.38.138l.039,2.591Z" transform="translate(-221.745 -9.04)"/>
      </g>
      <g id="グループ_1619" data-name="グループ 1619">
        <path id="パス_761" data-name="パス 761" d="M23.394,47.7l1.833,1.033a1.061,1.061,0,0,0,1.039,0l8.856-4.993a1.01,1.01,0,0,0,.52-.879V39.218h-3.56Z" transform="translate(-15.85 -26.87)" fill="#4bb3d9"/>
        <path id="パス_762" data-name="パス 762" d="M1.813,13.974.52,14.7a1.011,1.011,0,0,0-.52.879v5.325H8.913Z" transform="translate(0 -9.574)" fill="#50a594"/>
        <path id="パス_763" data-name="パス 763" d="M36.19,10.691,31.628,8.119l-6.658,6.5,2.163,2.112.153.15a.05.05,0,0,0,.035.014H36.71V11.57a1.011,1.011,0,0,0-.52-.879" transform="translate(-16.918 -5.563)" fill="#50a594"/>
        <path id="パス_764" data-name="パス 764" d="M19.544,2.032,16.182.137a1.062,1.062,0,0,0-1.039,0L8.511,3.875,13.083,8.34Z" transform="translate(-5.767 -0.001)" fill="#4bb3d9"/>
        <path id="パス_765" data-name="パス 765" d="M0,39.218v3.645a1.01,1.01,0,0,0,.52.879l6.092,3.434,8.151-7.958Z" transform="translate(0 -26.87)" fill="#4bb3d9"/>
      </g>
    </g>
  </g>
</svg>
