<svg id="グループ_1646" data-name="グループ 1646" xmlns="http://www.w3.org/2000/svg" xmlns:xlink="http://www.w3.org/1999/xlink" width="112.812" height="22" viewBox="0 0 112.812 22">
  <defs>
    <clipPath id="clip-path">
      <rect id="長方形_1208" data-name="長方形 1208" width="112.812" height="22" fill="none"/>
    </clipPath>
  </defs>
  <g id="グループ_1646-2" data-name="グループ 1646" clip-path="url(#clip-path)">
    <path id="パス_792" data-name="パス 792" d="M9.04,23.637l1.789,1.033a1.016,1.016,0,0,0,1.014,0l8.648-4.992A1.017,1.017,0,0,0,21,18.8V15.154H17.523Z" transform="translate(-1.674 -2.806)" fill="#4bb3d9"/>
    <path id="パス_793" data-name="パス 793" d="M1.77,5.4.508,6.128A1.017,1.017,0,0,0,0,7.008v5.326H8.7Z" transform="translate(0 -1)" fill="#50a594"/>
    <path id="パス_794" data-name="パス 794" d="M20.6,5.709,16.149,3.137l-6.5,6.5,2.112,2.112.15.15a.046.046,0,0,0,.033.014h9.167V6.589a1.017,1.017,0,0,0-.508-.879" transform="translate(-1.787 -0.581)" fill="#50a594"/>
    <path id="パス_795" data-name="パス 795" d="M14.061,2.031,10.779.136a1.014,1.014,0,0,0-1.015,0L3.288,3.874,7.753,8.339Z" transform="translate(-0.609 0)" fill="#4bb3d9"/>
    <path id="パス_796" data-name="パス 796" d="M0,15.154V18.8a1.015,1.015,0,0,0,.508.879l5.948,3.434,7.957-7.958Z" transform="translate(0 -2.806)" fill="#4bb3d9"/>
    <rect id="長方形_1207" data-name="長方形 1207" width="2.713" height="11.688" transform="translate(26.525 5.411)" fill="#1a1311"/>
    <path id="パス_797" data-name="パス 797" d="M60.9,6.641H57.423L53.03,18.329H55.7l.633-2.144.916-3.01H60.84l1.022,3.01.649,2.144h2.782l-1.937-5.154h2.512V11.994H62.912Zm-3.289,5.353.671-2.2h1.409l.748,2.2Z" transform="translate(-9.821 -1.23)" fill="#1a1311"/>
    <path id="パス_798" data-name="パス 798" d="M82.723,6.641H79.218l-5.154,6.017V6.641H71.351V18.328h2.713V15.549l2.885-3.022,2.974,5.8h3.385L78.7,10.8Z" transform="translate(-13.214 -1.23)" fill="#1a1311"/>
    <path id="パス_799" data-name="パス 799" d="M97.535,13.913a2.889,2.889,0,0,1-.78,2.129,3.18,3.18,0,0,1-4.183-.013,2.894,2.894,0,0,1-.776-2.116V6.641h-2.7v7.088a7.154,7.154,0,0,0,.345,2.009A3.485,3.485,0,0,0,90.162,17a4.039,4.039,0,0,0,1.186.968A4.776,4.776,0,0,0,93,18.421a17.03,17.03,0,0,0,1.992.129,7.488,7.488,0,0,0,2.584-.394,3.851,3.851,0,0,0,1.373-.926,4.07,4.07,0,0,0,.971-1.544,5.882,5.882,0,0,0,.323-1.958V6.641h-2.7Z" transform="translate(-16.499 -1.23)" fill="#1a1311"/>
    <path id="パス_800" data-name="パス 800" d="M111.711,8.919a4.852,4.852,0,0,0-5.009,4.666c0,1.8,1,3.219,2.287,3.219,1.538,0,2.423-2.221,2.814-3.544a21.3,21.3,0,0,0,.631-2.791l.008-.051.051.011a2.528,2.528,0,0,1,1.945,2.705,2.769,2.769,0,0,1-2.309,2.749c-.239.057-.481.113-.811.161l-.166.024.926,1.448.072-.013c2.56-.467,3.97-2,3.97-4.316a4.153,4.153,0,0,0-4.409-4.269m-.948,1.608a15.952,15.952,0,0,1-.548,2.418c-.359,1.159-.7,1.931-1.183,1.931-.344,0-.746-.384-.746-1.463a3.22,3.22,0,0,1,2.416-2.941l.073-.02Z" transform="translate(-19.761 -1.652)" fill="#1a1311"/>
    <path id="パス_801" data-name="パス 801" d="M122.394,10.332a9,9,0,0,1,1,1.284c.29-.118.563-.241.813-.367l.238-.118a10.448,10.448,0,0,0,2.91-2.264l.379-.426v3.169h1.718V8.4l.376.4a11.056,11.056,0,0,0,4.126,2.786A9.951,9.951,0,0,1,135,10.213a11.349,11.349,0,0,1-3.424-1.643l-.547-.393h3.493V6.738h-5.071V5.279h-1.718V6.738h-4.79V8.176h3.139l-.461.383a10.413,10.413,0,0,1-3.229,1.773" transform="translate(-22.667 -0.978)" fill="#1a1311"/>
    <path id="パス_802" data-name="パス 802" d="M126.086,16.37l-.11-.062v-.476h1.768v-1.41h-1.768V12.949h-1.552l-.02-.077v1.551H122v1.41h1.831l-.233.339A6.725,6.725,0,0,1,121.763,18a12,12,0,0,1,.733,1.6,6.011,6.011,0,0,0,1.51-1.661l.4-.623v2.969h1.572V17.711l.374.4.2.212c.077.081.152.159.22.233l.932-1.176c-.394-.262-1.14-.741-1.618-1.01" transform="translate(-22.55 -2.384)" fill="#1a1311"/>
    <path id="パス_803" data-name="パス 803" d="M134.605,16.192l-.244-.342h2.075V14.441h-2.786V12.967h-1.586v1.474h-2.241V15.85h1.4l-.2.328a6.794,6.794,0,0,1-2.207,2.316,8.952,8.952,0,0,1,1,1.2,6.906,6.906,0,0,0,1.833-2.062l.4-.667V20.3h1.586V16.945l.406.725a9.27,9.27,0,0,0,1.427,1.966,9.708,9.708,0,0,1,1.186-1.364,8.921,8.921,0,0,1-2.064-2.08" transform="translate(-23.858 -2.401)" fill="#1a1311"/>
    <path id="パス_804" data-name="パス 804" d="M50.609,13.175l.408-1.181H47.29V6.64h-2.73v5.326l-1.777-.718-.021-.015a.441.441,0,0,0-.253-.081H38.763l-.781.3v2.266l.781.3H42.5a.445.445,0,0,0,.263-.087l.022-.016,1.769-.738h0v5.154h2.73V13.175Z" transform="translate(-7.034 -1.23)" fill="#1a1311"/>
  </g>
</svg>
