<svg id="コンポーネント_19_1" data-name="コンポーネント 19 – 1" xmlns="http://www.w3.org/2000/svg" width="32" height="37" viewBox="0 0 32 37">
  <g id="logo" transform="translate(-49.1 -25.759)">
    <circle id="楕円形_31" data-name="楕円形 31" cx="1.159" cy="1.159" r="1.159" transform="translate(63.946 25.759)" fill="#1a1311"/>
    <circle id="楕円形_32" data-name="楕円形 32" cx="1.086" cy="1.086" r="1.086" transform="translate(64.019 60.586)" fill="#1a1311"/>
    <circle id="楕円形_33" data-name="楕円形 33" cx="1.159" cy="1.159" r="1.159" transform="translate(49.1 34.43)" fill="#1a1311"/>
    <circle id="楕円形_34" data-name="楕円形 34" cx="1.086" cy="1.086" r="1.086" transform="translate(78.927 51.879)" fill="#1a1311"/>
    <circle id="楕円形_35" data-name="楕円形 35" cx="1.159" cy="1.159" r="1.159" transform="translate(49.1 51.771)" fill="#1a1311"/>
    <circle id="楕円形_36" data-name="楕円形 36" cx="1.086" cy="1.086" r="1.086" transform="translate(78.927 34.466)" fill="#1a1311"/>
    <path id="パス_12606" data-name="パス 12606" d="M72.907,68.433h-.919a8.407,8.407,0,0,0-4.137-7.144,8.18,8.18,0,0,0-8.173-.059l-.46-.806a8.446,8.446,0,0,0,0-14.405l.46-.807a8,8,0,0,0,8.172-.06,8.218,8.218,0,0,0,4.138-7.143h.919a8.218,8.218,0,0,0,4.137,7.143,8,8,0,0,0,8.172.06l.459.807a8.446,8.446,0,0,0,0,14.405l-.459.806a8.18,8.18,0,0,0-8.172.06A8.407,8.407,0,0,0,72.907,68.433ZM63.683,59.2a9.359,9.359,0,0,1,8.764,6.345,9.3,9.3,0,0,1,10.534-6.164,9.536,9.536,0,0,1,0-12.328,9.3,9.3,0,0,1-10.534-6.164,9.3,9.3,0,0,1-10.534,6.164,9.536,9.536,0,0,1,0,12.328,8.731,8.731,0,0,1,1.77-.181Z" transform="translate(-7.342 -8.89)" fill="#1a1311"/>
    <g id="グループ_9094" data-name="グループ 9094" transform="translate(61.797 38.131)">
      <path id="パス_12607" data-name="パス 12607" d="M94.662,69.713q0-.289.321-.289h1.352q.322,0,.322.289v.956a.318.318,0,0,0,.048.167.384.384,0,0,0,.113.123L99.07,72.58a.145.145,0,0,0,.1.043c.065,0,.1-.038.1-.116v-2.8q0-.289.321-.289h1.352q.321,0,.322.289V79.27q0,.29-.322.29H99.585q-.322,0-.321-.29V75.158a.345.345,0,0,0-.129-.26L96.85,73.232a.145.145,0,0,0-.1-.044q-.1,0-.1.116V79.27q0,.29-.322.29H94.983q-.322,0-.321-.29Z" transform="translate(-94.662 -69.423)" fill="#1a1311"/>
    </g>
    <path id="パス_12608" data-name="パス 12608" d="M92.739,33.444l1.885,2.326L91.9,34.528Z" transform="translate(-30.898 -5.577)" fill="#1a1311"/>
    <path id="パス_12609" data-name="パス 12609" d="M114.555,34.53l-2.724,1.242,1.885-2.326Z" transform="translate(-45.286 -5.578)" fill="#1a1311"/>
    <g id="グループ_9096" data-name="グループ 9096" transform="translate(61.775 49.172)">
      <g id="グループ_9095" data-name="グループ 9095" transform="translate(0 0)">
        <path id="パス_12610" data-name="パス 12610" d="M94.584,109.455a.4.4,0,0,1,.4-.406.418.418,0,0,1,.208.052.381.381,0,0,1,.146.145.41.41,0,0,1,.053.208v.043a.038.038,0,0,1-.043.042h-.178a.038.038,0,0,1-.043-.042l0-.062a.153.153,0,0,0-.042-.106.142.142,0,0,0-.2,0,.144.144,0,0,0-.041.106v.745a.174.174,0,0,0,.041.122.13.13,0,0,0,.1.045.133.133,0,0,0,.1-.045.175.175,0,0,0,.04-.122V110a.019.019,0,0,0-.021-.021h-.1a.038.038,0,0,1-.043-.042v-.154a.038.038,0,0,1,.043-.043h.348a.038.038,0,0,1,.043.043v.4a.41.41,0,0,1-.053.208.388.388,0,0,1-.146.146.41.41,0,0,1-.208.054.4.4,0,0,1-.407-.408Z" transform="translate(-94.582 -109.05)" fill="#1a1311"/>
        <path id="パス_12611" data-name="パス 12611" d="M98.361,109.784q0-.021-.015-.021c-.009,0-.014.007-.015.021l-.156.8a.042.042,0,0,1-.047.038h-.184q-.047,0-.036-.047l.3-1.234a.187.187,0,0,0,0-.039v-.129a.038.038,0,0,1,.042-.042h.18a.038.038,0,0,1,.042.042v.13a.187.187,0,0,0,0,.039l.3,1.234a.034.034,0,0,1,0,.015c0,.021-.013.032-.038.032h-.182a.042.042,0,0,1-.047-.038Z" transform="translate(-96.995 -109.109)" fill="#1a1311"/>
        <path id="パス_12612" data-name="パス 12612" d="M112.9,109.784c0-.014-.007-.021-.015-.021s-.014.007-.015.021l-.156.8a.042.042,0,0,1-.047.038h-.183q-.047,0-.036-.047l.3-1.234a.208.208,0,0,0,0-.039v-.129a.038.038,0,0,1,.043-.042h.179a.038.038,0,0,1,.042.042v.13a.188.188,0,0,0,0,.039l.3,1.234a.04.04,0,0,1,0,.015c0,.021-.013.032-.038.032h-.182a.042.042,0,0,1-.047-.038Z" transform="translate(-107.548 -109.109)" fill="#1a1311"/>
        <path id="パス_12613" data-name="パス 12613" d="M101.206,109.327v-.152a.038.038,0,0,1,.042-.042h.7a.038.038,0,0,1,.043.042v.154a.038.038,0,0,1-.043.043h-.2a.019.019,0,0,0-.021.021v1.192a.038.038,0,0,1-.043.042h-.18a.038.038,0,0,1-.043-.042v-1.192a.019.019,0,0,0-.021-.021h-.2a.038.038,0,0,1-.042-.044Z" transform="translate(-99.388 -109.109)" fill="#1a1311"/>
        <path id="パス_12614" data-name="パス 12614" d="M105.306,110.429v.154a.038.038,0,0,1-.042.042h-.645a.038.038,0,0,1-.042-.042v-1.409a.038.038,0,0,1,.042-.042h.645a.038.038,0,0,1,.042.042v.154a.038.038,0,0,1-.042.043h-.4a.019.019,0,0,0-.021.021v.974a.019.019,0,0,0,.021.021h.4a.038.038,0,0,1,.043.042Z" transform="translate(-101.834 -109.109)" fill="#1a1311"/>
        <path id="パス_12615" data-name="パス 12615" d="M107.726,109.161c0-.023.013-.034.039-.034h.186a.041.041,0,0,1,.045.038l.128.961q0,.011.011.011a.011.011,0,0,0,.012-.011l.13-.959a.043.043,0,0,1,.047-.041h.113a.045.045,0,0,1,.031.011.046.046,0,0,1,.014.03l.127.959q0,.011.011.011a.011.011,0,0,0,.012-.011l.12-.961a.041.041,0,0,1,.045-.038h.183q.043,0,.036.047l-.224,1.409a.042.042,0,0,1-.047.038h-.218a.042.042,0,0,1-.047-.038l-.094-.641c0-.008-.006-.013-.013-.013s-.01,0-.013.013l-.094.641a.042.042,0,0,1-.047.038H108a.042.042,0,0,1-.047-.038l-.226-1.409a.03.03,0,0,1,0-.013Z" transform="translate(-104.12 -109.105)" fill="#1a1311"/>
        <path id="パス_12616" data-name="パス 12616" d="M115.575,109.127h.186a.042.042,0,0,1,.029.008.062.062,0,0,1,.016.03l.165.562c0,.01.006.015.013.015s.011,0,.013-.015l.16-.562a.045.045,0,0,1,.045-.038h.183a.039.039,0,0,1,.033.013.037.037,0,0,1,0,.034l-.308.9v.508a.038.038,0,0,1-.042.042h-.179a.038.038,0,0,1-.043-.042v-.508q-.312-.891-.312-.91C115.536,109.138,115.549,109.127,115.575,109.127Z" transform="translate(-109.789 -109.106)" fill="#1a1311"/>
      </g>
      <circle id="楕円形_37" data-name="楕円形 37" cx="0.171" cy="0.171" r="0.171" transform="translate(3.072 0.599)" fill="#1a1311"/>
    </g>
  </g>
</svg>
