<svg id="コンポーネント_54_4" data-name="コンポーネント 54 – 4" xmlns="http://www.w3.org/2000/svg" width="56" height="64" viewBox="0 0 56 64">
  <g id="グループ_1622" data-name="グループ 1622" transform="translate(0 0)">
    <path id="パス_767" data-name="パス 767" d="M61.971,128.567l5.185,3.005a2.932,2.932,0,0,0,2.941,0l25.059-14.524a2.955,2.955,0,0,0,1.471-2.557v-10.6H86.554Z" transform="translate(-40.626 -67.968)" fill="#4bb3d9"/>
    <path id="パス_768" data-name="パス 768" d="M5.128,37.018,1.47,39.138A2.955,2.955,0,0,0,0,41.695V57.187H25.219Z" transform="translate(0 -24.219)" fill="#50a594"/>
    <path id="パス_769" data-name="パス 769" d="M97.891,28.991,84.981,21.508,66.144,40.418l6.12,6.144L72.7,47a.137.137,0,0,0,.1.04H99.362V31.548a2.954,2.954,0,0,0-1.47-2.557" transform="translate(-43.362 -14.072)" fill="#50a594"/>
    <path id="パス_770" data-name="パス 770" d="M53.761,5.908,44.25.4a2.93,2.93,0,0,0-2.941,0L22.545,11.271,35.482,24.258Z" transform="translate(-14.78 0)" fill="#4bb3d9"/>
    <path id="パス_771" data-name="パス 771" d="M0,103.888v10.6a2.956,2.956,0,0,0,1.47,2.557l17.237,9.99,23.061-23.15Z" transform="translate(0 -67.968)" fill="#4bb3d9"/>
  </g>
</svg>
